# xmcd
#
# Track frame offsets: 
#        150
#        10686
#        21818
#        35826
#        46724
#        57847
#        86030
#        115196
#        127218
#        139758
#        151103
#        164355
#        177574
#        189259
#        201697
#        214397
#        228734
#        239146
#        250035
#        261614
#        272254
#        282756
#        293400
#        304126
#        316062
#        328531
#        341043
#
# Disc length: 4730 seconds
#
# Revision: 1
# Processed by: cddbd v1.5.2PL0 Copyright (c) Steve Scherf et al.
# Submitted via: ExactAudioCopy v0.95b4
#
DISCID=9412781b
DTITLE=Freddie King - The Very Best of Freddy King, Vol. 3 (1962-1966)
DYEAR=2002
DGENRE=Blues
TTITLE0=(I'd Love To) Make Love To You
TTITLE1=One Hundred Years
TTITLE2=Now I've Got A Woman
TTITLE3=Surf Monkey
TTITLE4=If You Have It
TTITLE5=Low Tide
TTITLE6=Remington Ride
TTITLE7=Monkey Donkey
TTITLE8=Meet Me At The Station
TTITLE9=Full Time Love
TTITLE10=King-A-Ling
TTITLE11=I Love You More Everyday
TTITLE12=Teardrops on Your Letter
TTITLE13=Some Other Day Some Other Time
TTITLE14=She's the One
TTITLE15=She's That Kind
TTITLE16=Man Hole
TTITLE17=Fish Fare
TTITLE18=Funny Bone
TTITLE19=Cloud Sailin'
TTITLE20=The Sad Nite Owl
TTITLE21=Nickel Plated
TTITLE22=Freddy's Midnite Dream
TTITLE23=Girl From Kookamunga
TTITLE24=You've Got Me Licked
TTITLE25=Double-Eyed Wammy
TTITLE26=Use What You've Got
EXTD=YEAR: 2002
EXTT0=
EXTT1=
EXTT2=
EXTT3=
EXTT4=
EXTT5=
EXTT6=
EXTT7=
EXTT8=
EXTT9=
EXTT10=
EXTT11=
EXTT12=
EXTT13=
EXTT14=
EXTT15=
EXTT16=
EXTT17=
EXTT18=
EXTT19=
EXTT20=
EXTT21=
EXTT22=
EXTT23=
EXTT24=
EXTT25=
EXTT26=
PLAYORDER=
